<svg width="132" height="28" viewBox="0 0 132 28" fill="none" xmlns="http://www.w3.org/2000/svg">
<path fill-rule="evenodd" clip-rule="evenodd" d="M81.372 20.9083C79.6234 22.1677 77.5445 22.8423 75.4144 22.8423H74.8483V4.21024C74.8483 2.77262 75.552 1.43276 76.7166 0.650247V0H74.8483H69.8674H68V0.650247C69.1646 1.43276 69.8674 2.77262 69.8674 4.21024V22.8423V23.7902C69.8674 25.2278 69.1646 26.5677 68 27.3502V28H69.8674H74.8483H82V22.8423V20.9083H81.372Z" fill="#DDAD26"/>
<path fill-rule="evenodd" clip-rule="evenodd" d="M48.3406 7.09168H49L47.5981 0H33.4023L32 7.09168H32.6594C34.0564 6.13488 36.2142 5.51604 37.8832 5.27452V23.7898C37.8832 25.2274 37.1443 26.5672 35.9206 27.3498V28H45.0794V27.3498C43.8557 26.5672 43.1173 25.2274 43.1173 23.7898V5.27452C44.7858 5.51604 46.9441 6.13488 48.3406 7.09168Z" fill="#DDAD26"/>
<path fill-rule="evenodd" clip-rule="evenodd" d="M131.341 7.09168H132L130.598 0H116.402L115 7.09168H115.659C117.056 6.13488 119.214 5.51604 120.883 5.27452V23.7898C120.883 25.2274 120.145 26.5672 118.921 27.3498V28H128.079V27.3498C126.856 26.5672 126.117 25.2274 126.117 23.7898V5.27452C127.786 5.51604 129.944 6.13488 131.341 7.09168Z" fill="#DDAD26"/>
<path fill-rule="evenodd" clip-rule="evenodd" d="M56.4031 16.016L57.5 9.2888L58.5969 16.016H56.4031ZM68 27.3498C66.85 26.565 66.0356 25.3729 65.7184 24.0109L60.907 3.33838C60.6663 2.30373 61.0959 1.22839 61.981 0.650247V0H60.1304H54.8696H53.0185V0.650247C53.9037 1.22839 54.3333 2.30373 54.0925 3.33838L49.2816 24.0109C48.9644 25.3729 48.15 26.565 47 27.3498V28H48.353H53.6137H55.4684V27.3498C54.5929 26.6349 54.2006 25.4795 54.4576 24.3745L55.4332 20.1833H59.5668L60.542 24.3745C60.7994 25.4795 60.4067 26.6354 59.5316 27.3498V28H61.3858H66.6466H68V27.3498Z" fill="#DDAD26"/>
<path fill-rule="evenodd" clip-rule="evenodd" d="M23.4031 16.016L24.5 9.2888L25.5969 16.016H23.4031ZM35 27.3498C33.85 26.565 33.0356 25.3729 32.7188 24.0109L27.9075 3.33838C27.6667 2.30373 28.0963 1.22839 28.9815 0.650247V0H27.1304H21.8696H20.019V0.650247C20.9041 1.22839 21.3337 2.30373 21.093 3.33838L16.2816 24.0109C15.9644 25.3729 15.15 26.565 14 27.3498V28H15.3534H20.6142H22.4688V27.3498C21.5933 26.6349 21.2006 25.4795 21.458 24.3745L22.4332 20.1833H26.5668L27.5424 24.3745C27.7994 25.4795 27.4071 26.6354 26.5316 27.3498V28H28.3858H33.6466H35V27.3498Z" fill="#DDAD26"/>
<path fill-rule="evenodd" clip-rule="evenodd" d="M96.4614 3.95551C96.8959 2.56697 97.7983 1.39208 99 0.649815V0H97.6999H92.6333H90.8594V0.649815C91.5865 1.40181 91.8445 2.5192 91.5262 3.53616L89.4998 10.0087L87.4734 3.53572C87.155 2.51919 87.413 1.40181 88.1401 0.649815V0H86.3667H81.3001H80V0.649815C81.2013 1.39208 82.1037 2.56697 82.5381 3.95551L87.0385 18.0997V23.7901C87.0385 25.2278 86.3435 26.5677 85.1928 27.3502V28H87.0385H91.9619H93.8076V27.3502C92.6561 26.5677 91.9619 25.2278 91.9619 23.7901V18.0997L96.4614 3.95551Z" fill="#DDAD26"/>
<path fill-rule="evenodd" clip-rule="evenodd" d="M10.9526 21.0248C11.7488 21.4684 11.5913 22.8348 10.4487 22.8348H6.54676C5.77973 22.8348 5.15779 22.213 5.15779 21.4462V6.54425C5.15779 5.7779 5.77973 5.15616 6.54676 5.15616H9.31808C10.8172 5.15616 12.2252 5.87475 13.1046 7.08905H13.7544V0H5.25555C2.35285 0 0 2.35167 0 5.25344V22.7371C0 25.6388 2.35285 27.9909 5.25555 27.9909H9.91038C9.91038 27.9909 14.463 28.3425 14.9532 24.666C15.4437 20.9899 11.9416 19.9396 10.9526 21.0248Z" fill="#DDAD26"/>
<path fill-rule="evenodd" clip-rule="evenodd" d="M109.998 10.4999H106.801C106.121 10.4999 105.569 9.9187 105.569 9.20122V6.45647C105.569 5.73899 106.121 5.15774 106.802 5.15774H110.567C111.909 5.15774 113.154 5.88938 113.858 7.09168H114.476L113.164 0H105.675C102.913 0 100.673 2.35947 100.673 5.2701V10.388C100.673 13.2982 102.913 15.6577 105.675 15.6577H108.872C109.552 15.6577 110.104 16.2394 110.104 16.9569V21.5431C110.104 22.2606 109.552 22.8418 108.872 22.8418H106.19C103.825 22.8418 103.296 20.1431 105.032 19.1434C102.97 17.6438 99.4478 19.6923 100.073 23.7137C100.673 27.5714 104.498 28 105.71 28H109.998C112.76 28 115 25.6405 115 22.7299V15.7696C115 12.8594 112.76 10.4999 109.998 10.4999Z" fill="#DDAD26"/>
</svg>
