<svg width="31" height="32" viewBox="0 0 31 32" fill="none" xmlns="http://www.w3.org/2000/svg">
<path d="M15.4 30.3C7.45983 30.3 1 23.8402 1 15.9C1 7.95983 7.45983 1.5 15.4 1.5C23.3402 1.5 29.8 7.95983 29.8 15.9C29.8 23.8402 23.3402 30.3 15.4 30.3" stroke="#DDAD26" stroke-width="1.5"/>
<path fill-rule="evenodd" clip-rule="evenodd" d="M23.2563 22.0706C23.2563 17.8961 19.61 14.5 15.1281 14.5C10.6462 14.5 7 17.8961 7 22.0706C7 22.3629 7.25447 22.6 7.5684 22.6C7.88233 22.6 8.1368 22.3629 8.1368 22.0706C8.1368 18.48 11.2731 15.5588 15.1281 15.5588C18.9831 15.5588 22.1194 18.48 22.1194 22.0706C22.1194 22.3629 22.374 22.6 22.6878 22.6C23.0017 22.6 23.2563 22.3629 23.2563 22.0706Z" fill="#DDAD26"/>
<path d="M23.2563 22.0706C23.2563 17.8961 19.61 14.5 15.1281 14.5C10.6462 14.5 7 17.8961 7 22.0706C7 22.3629 7.25447 22.6 7.5684 22.6C7.88233 22.6 8.1368 22.3629 8.1368 22.0706C8.1368 18.48 11.2731 15.5588 15.1281 15.5588C18.9831 15.5588 22.1194 18.48 22.1194 22.0706C22.1194 22.3629 22.374 22.6 22.6878 22.6C23.0017 22.6 23.2563 22.3629 23.2563 22.0706" stroke="#DDAD26" stroke-width="0.8"/>
<path d="M15.0641 14.6C12.8231 14.6 11 12.7832 11 10.55C11 8.3168 12.8231 6.5 15.0641 6.5C17.305 6.5 19.1281 8.3168 19.1281 10.55C19.1281 12.7832 17.305 14.6 15.0641 14.6" stroke="#DDAD26" stroke-width="1.5"/>
</svg>
